<?xml version="1.0" encoding="UTF-8" standalone="no"?>
<!-- Created with Inkscape (http://www.inkscape.org/) -->

<svg
   width="31.999998"
   height="31.999998"
   viewBox="0 0 8.466666 8.4666661"
   version="1.1"
   id="svg1"
   xmlns="http://www.w3.org/2000/svg"
   xmlns:svg="http://www.w3.org/2000/svg">
  <defs
     id="defs1" />
  <g
     id="layer1">
    <path
       d="M 1.0583333,2.1166666 C 0.47201668,2.1166666 0,2.5886833 0,3.175 v 2.1166666 c 0,0.5863166 0.47201668,1.0583333 1.0583333,1.0583333 h 6.3499999 c 0.5863167,0 1.0583334,-0.4720167 1.0583334,-1.0583333 V 3.175 c 0,-0.5863167 -0.4720167,-1.0583334 -1.0583334,-1.0583334 z m -5.167e-4,0.5291667 a 0.52916503,0.52916503 0 0 1 0.3736206,0.1550293 l 1.05885,1.0583333 a 0.52921795,0.52921795 0 0 1 0,0.7482747 l -1.05885,1.0583334 a 0.52916503,0.52916503 0 0 1 -0.74775801,0 0.52916503,0.52916503 0 0 1 0,-0.747758 L 1.3689087,4.2322997 0.68367919,3.5486206 a 0.52916503,0.52916503 0 0 1 0,-0.747758 0.52916503,0.52916503 0 0 1 0.37413741,-0.1550293 z m 5.2927001,0 A 0.52916503,0.52916503 0 0 1 6.724654,2.8008626 l 1.0583334,1.0583333 a 0.52921795,0.52921795 0 0 1 0,0.7482747 L 6.724654,5.665804 a 0.52916503,0.52916503 0 0 1 -0.7482747,0 0.52916503,0.52916503 0 0 1 0,-0.747758 L 6.6600585,4.2322997 5.9763793,3.5486206 a 0.52916503,0.52916503 0 0 1 0,-0.747758 0.52916503,0.52916503 0 0 1 0.3741374,-0.1550293 z"
       style="stroke-width:1.05833"
       id="path15" />
  </g>
</svg>
